<?xml version="1.0" encoding="UTF-8" standalone="no"?>
<svg
   sodipodi:docname="BBFC_R18_2019.svg"
   inkscape:version="1.4 (e7c3feb100, 2024-10-09)"
   id="svg8"
   version="1.1"
   viewBox="0 0 92.604164 92.604164"
   height="92.604164mm"
   width="92.604164mm"
   xmlns:inkscape="http://www.inkscape.org/namespaces/inkscape"
   xmlns:sodipodi="http://sodipodi.sourceforge.net/DTD/sodipodi-0.dtd"
   xmlns="http://www.w3.org/2000/svg"
   xmlns:svg="http://www.w3.org/2000/svg"
   xmlns:rdf="http://www.w3.org/1999/02/22-rdf-syntax-ns#"
   xmlns:cc="http://creativecommons.org/ns#"
   xmlns:dc="http://purl.org/dc/elements/1.1/">
  <defs
     id="defs2" />
  <sodipodi:namedview
     inkscape:window-maximized="1"
     inkscape:window-y="0"
     inkscape:window-x="0"
     inkscape:window-height="730"
     inkscape:window-width="1280"
     showgrid="false"
     inkscape:document-rotation="0"
     inkscape:current-layer="svg8"
     inkscape:document-units="mm"
     inkscape:cy="154.28571"
     inkscape:cx="215.71429"
     inkscape:zoom="0.35"
     inkscape:pageshadow="2"
     inkscape:pageopacity="0.0"
     borderopacity="1.0"
     bordercolor="#666666"
     pagecolor="#ffffff"
     id="base"
     inkscape:showpageshadow="2"
     inkscape:pagecheckerboard="0"
     inkscape:deskcolor="#d1d1d1" />
  <metadata
     id="metadata5">
    <rdf:RDF>
      <cc:Work
         rdf:about="">
        <dc:format>image/svg+xml</dc:format>
        <dc:type
           rdf:resource="http://purl.org/dc/dcmitype/StillImage" />
        <dc:title />
      </cc:Work>
    </rdf:RDF>
  </metadata>
  <path
     inkscape:connector-curvature="0"
     id="path247"
     d="m 86.620948,82.36293 c 0,2.35192 -1.9061,4.25157 -4.25157,4.25157 H 10.241242 c -2.351926,0 -4.25157,-1.89965 -4.25157,-4.25157 V 10.23479 c 0,-2.34547 1.899644,-4.25158 4.25157,-4.25158 h 72.128136 c 2.34547,0 4.25157,1.90611 4.25157,4.25158 z M 82.369378,1.7058 H 10.241242 c -4.703869,0 -8.528992,3.82513 -8.528992,8.52899 v 72.12814 c 0,4.70387 3.825123,8.52899 8.528992,8.52899 h 72.128136 c 4.69742,0 8.52899,-3.82512 8.52899,-8.52899 V 10.23479 c 0,-4.70386 -3.83157,-8.52899 -8.52899,-8.52899"
     style="fill:#ffffff;fill-opacity:1;fill-rule:nonzero;stroke:none;stroke-width:1.65411" />
  <path
     inkscape:connector-curvature="0"
     id="path249"
     d="m 90.89837,82.362919 c 0,4.703868 -3.831574,8.528992 -8.528991,8.528992 H 10.241244 c -4.7038687,0 -8.5289923,-3.825124 -8.5289923,-8.528992 V 10.234784 c 0,-4.7038682 3.8251236,-8.5289918 8.5289923,-8.5289918 h 72.128135 c 4.697417,0 8.528991,3.8251236 8.528991,8.5289918 z M 82.369379,-6.1576999e-6 H 10.241244 C 4.5940213,-6.1576999e-6 2.3579249e-6,4.5940128 2.3579249e-6,10.234784 V 82.362919 C 2.3579249e-6,88.010141 4.5940213,92.60416 10.241244,92.60416 h 72.128135 c 5.640771,0 10.23479,-4.594019 10.23479,-10.241241 V 10.234784 C 92.604169,4.5940128 88.01015,-6.1576999e-6 82.369379,-6.1576999e-6"
     style="fill:#000000;fill-opacity:1;fill-rule:nonzero;stroke:none;stroke-width:1.65411" />
  <path
     inkscape:connector-curvature="0"
     id="path253"
     d="M 82.369378,5.98321 H 10.241242 c -2.351926,0 -4.25157,1.90611 -4.25157,4.25158 v 72.12814 c 0,2.35192 1.899644,4.25157 4.25157,4.25157 h 72.128136 c 2.34547,0 4.25157,-1.89965 4.25157,-4.25157 V 10.23479 c 0,-2.34547 -1.9061,-4.25158 -4.25157,-4.25158"
     style="fill:#006ed2;fill-opacity:1;fill-rule:nonzero;stroke:none;stroke-width:1.65411" />
  <path
     inkscape:connector-curvature="0"
     id="path255"
     d="m 11.455985,28.79181 h 10.85508 c 4.542329,0.0516 7.579171,0.0516 10.570773,2.46178 2.125793,1.7381 3.766982,4.43894 3.766982,8.39975 0,6.51305 -4.781413,8.781 -6.713361,9.36252 l 7.57917,13.85315 H 30.226218 L 23.474102,50.22413 h -5.698914 v 12.64488 h -6.319203 z m 6.319203,5.50507 v 10.6677 h 2.222707 c 2.171016,0 2.991603,-0.0516 4.199879,-0.0969 1.395653,-0.0516 5.983221,-0.29076 5.983221,-5.25955 0,-0.72367 -0.05161,-3.23713 -2.700844,-4.58756 -1.356881,-0.67198 -2.998069,-0.72368 -6.758584,-0.72368 z m 0,0"
     style="fill:#ffffff;fill-opacity:1;fill-rule:nonzero;stroke:none;stroke-width:1.65411" />
  <path
     inkscape:connector-curvature="0"
     id="path257"
     d="m 53.642178,28.65613 v 34.21288 h -6.235209 v -19.565 c 0,-3.24359 0,-4.20633 -2.784838,-4.20633 h -5.576146 v -3.90267 h 0.659046 c 3.191915,-0.0516 7.501643,-0.0969 8.871442,-6.53888 z m 0,0"
     style="fill:#ffffff;fill-opacity:1;fill-rule:nonzero;stroke:none;stroke-width:1.65411" />
  <path
     inkscape:connector-curvature="0"
     id="path259"
     d="m 82.853978,53.03483 c 0,6.2352 -5.37585,10.28648 -12.8258,10.28648 -7.80532,0 -12.61902,-4.35497 -12.61902,-10.28648 0,-5.37585 3.90265,-7.24966 5.62784,-8.05733 -3.65067,-1.72518 -4.41311,-5.42107 -4.41311,-7.44993 0,-5.32416 4.41311,-9.42712 11.75968,-9.42712 7.04287,0 11.65628,3.79927 11.65628,9.7308 0,2.9916 -1.21473,5.57614 -4.45834,7.14625 3.95436,1.97719 5.27247,4.9171 5.27247,8.05733 m -18.29856,-0.20032 c 0,2.88824 2.02886,4.86541 5.77646,4.86541 3.29529,0 5.73121,-1.72518 5.73121,-4.9171 0,-0.60735 -0.10338,-4.86539 -5.73121,-4.86539 -5.42109,0 -5.77646,3.85096 -5.77646,4.91708 M 65.117548,38.29 c 0,1.51842 0.65261,4.51004 5.26602,4.51004 4.00603,0 5.02046,-2.59102 5.02046,-4.51004 0,-3.90266 -3.09498,-4.61341 -5.07215,-4.61341 -4.30326,-0.0516 -5.21433,2.73316 -5.21433,4.61341"
     style="fill:#ffffff;fill-opacity:1;fill-rule:nonzero;stroke:none;stroke-width:1.65411" />
</svg>
