<?xml version="1.0" encoding="UTF-8"?>
<svg version="1.1" viewBox="0 0 109.8652 55.68267" xmlns="http://www.w3.org/2000/svg">
 <defs>
  <clipPath id="a">
   <path d="M 0,41.762 H 82.399 V 0 H 0 Z"/>
  </clipPath>
 </defs>
 <g transform="matrix(1.333333 0 0 -1.333333 0 55.68267)">
  <path d="m0 0h67.262v41.762h-67.262z" fill="#fff"/>
  <g clip-path="url(#a)">
   <g transform="translate(75.4171,4.5756)">
    <path d="m0 0h0.406c0.462 0 0.856 0.166 0.856 0.602 0 0.308-0.226 0.615-0.856 0.615-0.18 0-0.306-0.016-0.406-0.03zm0-1.947h-0.558v3.512c0.291 0.044 0.573 0.084 0.994 0.084 0.531 0 0.88-0.109 1.091-0.264 0.207-0.153 0.323-0.394 0.323-0.73 0-0.459-0.31-0.741-0.687-0.852v-0.029c0.308-0.053 0.519-0.336 0.59-0.851 0.082-0.548 0.163-0.756 0.222-0.87h-0.587c-0.086 0.114-0.17 0.436-0.242 0.894-0.082 0.449-0.304 0.616-0.754 0.616h-0.392zm0.591 4.494c-1.389 0-2.52-1.19-2.52-2.66 0-1.497 1.131-2.674 2.532-2.674 1.402-0.013 2.52 1.177 2.52 2.66 0 1.484-1.118 2.674-2.52 2.674zm0.012 0.486c1.722 0 3.091-1.396 3.091-3.146 0-1.778-1.369-3.161-3.103-3.161-1.721 0-3.123 1.383-3.123 3.161 0 1.75 1.402 3.146 3.123 3.146z"/>
   </g>
   <g transform="translate(79.4777,11.6957)">
    <path d="m0 0c0.731 0.466 1.206 1.075 1.296 1.752h1.169c-0.166-0.707-1.101-1.343-2.465-1.752m-0.603 1.752h1.465c-0.147-0.885-1.13-1.63-2.499-1.99 0.584 0.482 0.971 1.188 1.034 1.99m-7.195 0h1.466c0.061-0.802 0.446-1.508 1.03-1.99-1.368 0.36-2.352 1.105-2.496 1.99m-1.603 0h1.172c0.086-0.677 0.56-1.286 1.293-1.755-1.365 0.412-2.3 1.048-2.465 1.755m2.465 2.203c-0.74-0.473-1.22-1.089-1.298-1.774h-1.173c0.153 0.711 1.09 1.359 2.471 1.774m0.603-1.774h-1.467c0.13 0.893 1.118 1.652 2.498 2.012-0.587-0.487-0.977-1.203-1.031-2.012m2.865-2.65c-1.352 0-2.449 1.095-2.449 2.446s1.097 2.449 2.449 2.449 2.448-1.098 2.448-2.449-1.096-2.446-2.448-2.446m4.331 2.65h-1.466c-0.058 0.809-0.445 1.525-1.034 2.012 1.381-0.36 2.368-1.119 2.5-2.012m1.607 0h-1.174c-0.079 0.685-0.558 1.301-1.296 1.774 1.379-0.415 2.318-1.063 2.47-1.774m-5.938 2.673c-3.53 0-6.389-1.291-6.389-2.877 0-1.587 2.859-2.876 6.389-2.876 3.529 0 6.389 1.289 6.389 2.876 0 1.586-2.86 2.877-6.389 2.877"/>
   </g>
   <g transform="translate(75.6622,13.6723)">
    <path d="m0 0c0 0.187 0.148 0.337 0.336 0.337 0.185 0 0.336-0.15 0.336-0.337 0-0.186-0.151-0.339-0.336-0.339-0.188 0-0.336 0.153-0.336 0.339"/>
   </g>
   <g transform="translate(76.0099,15.1528)">
    <path d="m0 0 0.45 0.446c-0.277 0.277-0.625 0.277-0.901 0z"/>
   </g>
   <g transform="translate(76.3693,14.6244)">
    <path d="m0 0c0 0.344 0.28 0.625 0.626 0.625 0.347 0 0.626-0.281 0.626-0.625 0-0.347-0.279-0.626-0.626-0.626-0.346 0-0.626 0.279-0.626 0.626"/>
   </g>
   <g transform="translate(74.3932,14.6244)">
    <path d="m0 0c0 0.344 0.28 0.625 0.624 0.625 0.348 0 0.626-0.281 0.626-0.625 0-0.347-0.278-0.626-0.626-0.626-0.344 0-0.624 0.279-0.624 0.626"/>
   </g>
   <g transform="translate(74.4274,12.6869)">
    <path d="m0 0c0 0.345 0.279 0.626 0.626 0.626 0.346 0 0.624-0.281 0.624-0.626 0-0.346-0.278-0.625-0.624-0.625-0.347 0-0.626 0.279-0.626 0.625"/>
   </g>
   <g transform="translate(76.3156,12.6977)">
    <path d="m0 0c0 0.347 0.281 0.629 0.627 0.629 0.348 0 0.626-0.282 0.626-0.629 0-0.344-0.278-0.626-0.626-0.626-0.346 0-0.627 0.282-0.627 0.626"/>
   </g>
   <g transform="translate(75.9982,12.2133)">
    <path d="m0 0-0.452-0.45c0.276-0.279 0.624-0.279 0.904 0z"/>
   </g>
   <g transform="translate(77.4435,13.6703)">
    <path d="m0 0 0.447-0.451c0.28 0.278 0.28 0.625 0 0.901z"/>
   </g>
   <g transform="translate(74.5289,13.6703)">
    <path d="m0 0-0.446-0.451c-0.28 0.278-0.28 0.625 0 0.901z"/>
   </g>
   <g transform="translate(45.7731,30.5868)">
    <path d="m0 0h0.296c0.368 0 0.604 0.079 0.809 0.429 0.147 0.258 0.208 0.569 0.208 0.863 0 0.316-0.088 0.656-0.27 0.908-0.202 0.279-0.428 0.32-0.74 0.32h-0.303zm0.215 3.259c0.543 0 1.01-0.038 1.422-0.452 0.405-0.409 0.582-0.965 0.582-1.541 0-0.54-0.153-1.059-0.489-1.463-0.373-0.439-0.834-0.556-1.367-0.556h-1.24v4.012zm-3.492-0.78v-0.813h1.429v-0.754h-1.429v-0.887h1.812v-0.778h-2.69v4.012h2.69v-0.78zm-1.707-3.232h-0.75l-1.445 2.692h-0.023v-2.692h-0.68v4.012h0.95l1.257-2.357h0.011v2.357h0.68zm-5.742 2.847c-0.086-0.241-0.119-0.585-0.119-0.837 0-0.501 0.071-1.302 0.691-1.302 0.303 0 0.468 0.156 0.566 0.456 0.088 0.245 0.115 0.578 0.115 0.841 0 0.292-0.027 0.636-0.137 0.905-0.111 0.268-0.267 0.391-0.544 0.391-0.301 0-0.465-0.164-0.572-0.454m-0.647-2.276c-0.273 0.419-0.395 0.938-0.395 1.439 0 1.064 0.499 2.058 1.614 2.058 0.5 0 0.897-0.176 1.196-0.615 0.27-0.389 0.406-0.958 0.406-1.443 0-0.454-0.114-1.01-0.354-1.389-0.291-0.459-0.737-0.68-1.248-0.68-0.509 0-0.92 0.189-1.219 0.63m-1.092-0.571h-0.877v4.009h0.877zm-1.455 3.215h-0.943v-3.215h-0.879v3.215h-0.955v0.797h2.777zm-3.282-1.629c0-0.44 7e-3 -0.897-0.306-1.224-0.303-0.321-0.748-0.421-1.159-0.421-0.395 0-0.851 0.065-1.153 0.344-0.374 0.347-0.391 0.807-0.391 1.301v2.426h0.955v-2.426c0-0.187-3e-3 -0.455 0.084-0.621 0.115-0.212 0.352-0.269 0.565-0.269 0.175 0 0.433 0.057 0.545 0.214 0.121 0.182 0.101 0.464 0.101 0.676v2.426h0.759zm-4.851-0.025-0.401 1.408-0.4-1.408zm1.384-1.561h-0.949l-0.232 0.825h-1.218l-0.237-0.825h-0.772l1.206 4.012h1.021zm-4.704 2.454c-6e-3 0.445-0.149 0.862-0.632 0.862-0.619 0-0.682-0.864-0.682-1.352 0-0.55 0.063-1.256 0.726-1.256 0.411 0 0.604 0.367 0.652 0.753l0.857-0.058c-0.092-0.918-0.686-1.462-1.553-1.462-1.122 0-1.664 0.969-1.664 2.064 0 1.11 0.56 2.063 1.692 2.063 0.944 0 1.425-0.585 1.525-1.548zm36.971 4.818v-1.688h-0.876v1.688l-1.193 2.32h1.021l0.725-1.526 0.713 1.526h0.791zm-1.733-0.895v-0.793h-2.394v4.008h0.878v-3.215zm-4.71 0.6v0.751h1.549v-2.144h-0.401l-0.127 0.459c-0.28-0.362-0.588-0.519-1.027-0.519-1.103 0-1.558 0.974-1.558 2.027 0 1.088 0.497 2.099 1.635 2.099 0.811 0 1.363-0.525 1.478-1.375l-0.836-0.119c-0.038 0.402-0.24 0.739-0.666 0.739-0.62 0-0.712-0.859-0.712-1.354 0-0.523 0.138-1.256 0.752-1.256 0.386 0 0.647 0.283 0.626 0.692zm-2.217-1.393h-0.751l-1.446 2.691h-0.022v-2.691h-0.681v4.008h0.95l1.258-2.355h0.011v2.355h0.681zm-5.742 2.846c-0.089-0.24-0.122-0.585-0.122-0.837 0-0.505 0.072-1.304 0.692-1.304 0.303 0 0.467 0.158 0.565 0.456 0.089 0.247 0.118 0.576 0.118 0.842 0 0.292-0.029 0.637-0.138 0.905-0.112 0.27-0.271 0.39-0.545 0.39-0.3 0-0.465-0.163-0.57-0.452m-0.646-2.277c-0.277 0.415-0.397 0.935-0.397 1.44 0 1.064 0.5 2.057 1.613 2.057 0.502 0 0.895-0.174 1.198-0.615 0.268-0.391 0.406-0.957 0.406-1.442 0-0.456-0.114-1.011-0.356-1.393-0.292-0.455-0.736-0.676-1.248-0.676-0.509 0-0.921 0.187-1.216 0.629m-3.015 1.703h0.482c0.182 0 0.379-0.017 0.54 0.082 0.142 0.093 0.219 0.281 0.219 0.456 0 0.157-0.09 0.325-0.214 0.409-0.149 0.097-0.401 0.076-0.565 0.076h-0.462zm0-2.272h-0.879v4.008h1.585c0.336 0 0.678-5e-3 0.968-0.207 0.307-0.213 0.478-0.606 0.478-0.996 0-0.457-0.247-0.877-0.653-1.037l0.696-1.768h-0.976l-0.576 1.58h-0.643zm-1.455 3.214h-0.945v-3.214h-0.877v3.214h-0.955v0.794h2.777zm-4-0.353c-0.111 0.339-0.314 0.475-0.648 0.475-0.238 0-0.521-0.065-0.521-0.374 0-0.293 0.329-0.362 0.541-0.403 0.308-0.071 0.72-0.153 0.984-0.338 0.307-0.218 0.495-0.551 0.495-0.949 0-0.392-0.177-0.766-0.468-1.005-0.301-0.253-0.714-0.327-1.093-0.327-0.708 0-1.352 0.327-1.519 1.113l0.811 0.198c0.11-0.424 0.398-0.57 0.785-0.57 0.254 0 0.589 0.101 0.589 0.434 0 0.332-0.432 0.398-0.66 0.45-0.668 0.145-1.329 0.357-1.329 1.232 0 0.374 0.137 0.701 0.407 0.941 0.275 0.244 0.599 0.328 0.943 0.328 0.66 0 1.198-0.246 1.427-0.941zm-5.148 0c-0.112 0.339-0.314 0.475-0.649 0.475-0.238 0-0.523-0.065-0.523-0.374 0-0.293 0.333-0.362 0.546-0.403 0.306-0.071 0.717-0.153 0.983-0.338 0.306-0.218 0.492-0.551 0.492-0.949 0-0.392-0.177-0.766-0.466-1.005-0.304-0.253-0.713-0.327-1.094-0.327-0.706 0-1.348 0.327-1.52 1.113l0.814 0.198c0.111-0.424 0.395-0.57 0.785-0.57 0.253 0 0.587 0.101 0.587 0.434 0 0.332-0.428 0.398-0.66 0.45-0.669 0.145-1.327 0.357-1.327 1.232 0 0.374 0.136 0.701 0.407 0.941 0.273 0.244 0.598 0.328 0.944 0.328 0.657 0 1.194-0.246 1.427-0.941zm-2.466 0.353h-0.945v-3.214h-0.877v3.214h-0.956v0.794h2.778zm-3.337-3.214h-0.753l-1.443 2.691h-0.022v-2.691h-0.68v4.008h0.95l1.257-2.355h9e-3v2.355h0.682zm-5.309 3.231v-0.814h1.428v-0.753h-1.428v-0.891h1.812v-0.773h-2.69v4.008h2.69v-0.777zm-3.709-0.959h0.481c0.18 0 0.381-0.017 0.539 0.082 0.144 0.093 0.219 0.281 0.219 0.456 0 0.157-0.086 0.325-0.212 0.409-0.149 0.097-0.402 0.076-0.569 0.076h-0.458zm0-2.272h-0.879v4.008h1.586c0.335 0 0.676-5e-3 0.966-0.207 0.308-0.213 0.479-0.606 0.479-0.996 0-0.457-0.245-0.877-0.653-1.037l0.697-1.768h-0.979l-0.576 1.58h-0.641zm-2.794 1.559-0.401 1.408-0.4-1.408zm1.385-1.559h-0.951l-0.23 0.822h-1.218l-0.238-0.822h-0.773l1.206 4.008h1.023zm-4.965 2.211c0.209 0 0.386 0 0.538 0.178 0.083 0.099 0.122 0.228 0.122 0.355 0 0.157-0.061 0.321-0.181 0.422-0.138 0.109-0.32 0.109-0.484 0.109h-0.488v-1.064zm-0.493-2.211h-0.879v4.008h1.417c0.367 0 0.702 0 1.015-0.229 0.318-0.238 0.489-0.584 0.489-1 0-0.378-0.126-0.765-0.406-1.017-0.323-0.287-0.67-0.279-1.07-0.279h-0.566zm-5.878-7.235h64.919v-27.089h-64.919zm-1.139-28.182h67.262v41.762h-67.262z"/>
   </g>
   <g transform="translate(11.4508,8.2065)">
    <path d="m0 0c-1.377 0.241-2.102 0.388-2.054 1.819l-0.026 2.434c0.449-0.024 0.924-8e-3 1.315-8e-3 5.312 0 8.192-0.51 7.837 5.005-0.064 3.784-2.655 3.629-8.204 3.629-1.919 0-3.419-0.047-4.523-0.047-0.815 0-1.386 0.032-2.535-0.028-1.083-0.025-1.16-1.001-0.177-1.323 1.082-0.461 1.976-0.125 2.051-1.519v-8.252c-0.026-1.648-1.075-1.541-1.61-1.759-1.449-0.121-1.277-1.376-0.301-1.413 0.567-0.022 1.572-0.01 2.783-0.01 2.47 0 5.407-0.026 6.059-7e-3 0.93 0.031 1.05 1.36-0.615 1.479m-2.054 5.918v4.74c0 0.48 0.342 0.592 1.396 0.592 2.303 0.029 2.995-0.479 3.168-2.189 0.05-3.337-1.067-3.165-3.853-3.165-0.236 0-0.471 0-0.711 0.022" fill="#7f3f98"/>
   </g>
   <g transform="translate(30.2965,11.3549)">
    <path d="m0 0c-0.123 0.578-0.574 0.588-1.23 0.793-1.306 0.184-1.622 1.343-0.177 1.428h2.142c1.142 8e-3 3.672 0.05 4.398 0.015 1.318-0.027 1.606-0.969 0.013-1.391-0.421-0.116-1.112-0.496-1.122-1.32-5e-3 -0.43 0-3.115 0-3.115s-0.701-1.787-7.54-1.662c-4.219 0.095-7.186 0.211-7.353 7.171-0.025 9.019 5.664 7.998 7.873 8.161 3.142-0.045 4.786-0.431 5.699-0.771 1.409-0.496 1.471-1.173 1.49-2.412 0.018-1.237-0.255-2.394-1.652-2.457-1.962-0.164-2.109 0.703-2.25 1.488-0.292 2.044-0.829 2.468-2.947 2.465-3.639 0.027-4.036-1.893-3.954-6.209 0.063-3.265 0.126-5.627 3.676-5.58 1.902-4e-3 2.973 0.129 2.973 1.509 0 0 0.101 1.239-0.039 1.887" fill="#7f3f98"/>
   </g>
   <g transform="translate(42.2106,20.0214)">
    <path d="m0 0c1.755 0.601 2.585 0.926 3.655 1.072 0.726 0.014 1.732 0.038 2.273 0.021 0.236 0 0.238-0.175 0.231-0.338-0.023-0.521 0-1.19 0-2.313v-8.707c-0.013-1.144 0.288-1.593 1.372-1.607h0.187c0.973-0.011 0.961-1.349 0.108-1.352-0.889-3e-3 -2.376 3e-3 -3.901 3e-3h-3.282c-0.881-0.02-1.057 1.276 0.043 1.367h0.339c0.69 0.113 1.027 0.15 1.065 1.589l0.04 7.597c-0.027 0.594 0.214 1.246-1.019 1.11-1.806-0.384-2.129 1.157-1.111 1.558" fill="#7f3f98"/>
   </g>
   <g transform="translate(55.2399,6.4819)">
    <path d="m0 0c-3.274 0.167-3.616 0.854-3.65 2.275-0.039 0.963 0.034 1.81 0.998 2.196 0.786 0.307 2.155 0.384 2.652-1.876 0.273-0.86 1.631-0.742 2.003-0.742 1.143 0 2.574 0.268 2.702 2.356 0.123 1.476-0.074 1.941-0.809 2.395-1.331 0.556-3.165-0.258-3.466 0.84-0.202 1.784 1.029 0.982 2.933 1.383 1.043 0.213 1.315 0.801 1.284 2.38-0.08 2.146-1.583 2.184-2.885 2.097-3.034-0.192-1.079-2.363-3.165-2.819-2.546-0.331-2.224 1-2.288 1.678 0.025 1.267 0.087 1.701 0.806 2.233 0.991 0.78 2.813 0.803 5.354 0.784 1.429-0.015 5.499 0.048 6.01-3.302 0.215-2.328-0.188-2.969-1.743-3.803 0.993-0.752 1.798-1.523 1.715-3.888-0.376-4.657-4.765-4.35-8.451-4.187" fill="#7f3f98"/>
   </g>
   <g transform="translate(39.9616,15.6659)">
    <path d="m0 0h1.386c0.952-0.014 1.187-0.951 1.159-1.533-0.011-0.29-0.281-1.251-1.159-1.251l-2.602 0.01c-0.86 0.02-1.311 0.431-1.332 1.241-0.019 1.024 0.472 1.457 1.34 1.533h1.208" fill="#7f3f98"/>
   </g>
  </g>
 </g>
</svg>
