<?xml version="1.0" encoding="UTF-8"?>
<svg version="1.1" viewBox="0 0 83.7544 67.19067" xmlns="http://www.w3.org/2000/svg">
 <defs>
  <clipPath id="a">
   <path d="M 0,50.393 H 62.816 V 0 H 0 Z"/>
  </clipPath>
 </defs>
 <g transform="matrix(1.333333 0 0 -1.333333 0 67.19067)">
  <path d="m0 0h47.556v50.393h-47.556z" fill="#fff"/>
  <g clip-path="url(#a)">
   <g transform="translate(55.8375,4.578)">
    <path d="m0 0h0.407c0.465 0 0.854 0.168 0.854 0.604 0 0.308-0.224 0.616-0.854 0.616-0.18 0-0.307-0.014-0.407-0.029zm0-1.945h-0.559v3.513c0.294 0.044 0.575 0.087 0.995 0.087 0.532 0 0.882-0.113 1.092-0.267 0.211-0.152 0.323-0.394 0.323-0.73 0-0.459-0.309-0.742-0.688-0.852v-0.031c0.31-0.052 0.52-0.333 0.589-0.852 0.084-0.548 0.169-0.756 0.225-0.868h-0.588c-0.084 0.112-0.169 0.434-0.24 0.895-0.083 0.448-0.307 0.616-0.756 0.616h-0.393zm0.589 4.499c-1.386 0-2.521-1.194-2.521-2.663 0-1.497 1.135-2.676 2.535-2.676 1.402-0.015 2.522 1.179 2.522 2.661 0 1.484-1.12 2.678-2.522 2.678zm0.014 0.488c1.724 0 3.095-1.401 3.095-3.151 0-1.781-1.371-3.167-3.109-3.167-1.721 0-3.122 1.386-3.122 3.167 0 1.75 1.401 3.151 3.122 3.151z"/>
   </g>
   <g transform="translate(59.8917,11.7284)">
    <path d="m0 0c0.731 0.464 1.207 1.074 1.294 1.752h1.173c-0.168-0.707-1.103-1.343-2.467-1.752m-0.604 1.752h1.464c-0.143-0.886-1.131-1.633-2.501-1.994 0.586 0.483 0.974 1.192 1.037 1.994m-7.202 0h1.467c0.061-0.802 0.449-1.511 1.032-1.994-1.371 0.361-2.354 1.108-2.499 1.994m-1.605 0h1.17c0.091-0.678 0.564-1.288 1.297-1.755-1.368 0.412-2.301 1.048-2.467 1.755m2.467 2.204c-0.739-0.472-1.218-1.088-1.298-1.774h-1.173c0.152 0.714 1.092 1.361 2.471 1.774m0.602-1.774h-1.465c0.129 0.894 1.12 1.652 2.5 2.016-0.589-0.491-0.977-1.208-1.035-2.016m2.87-2.653c-1.352 0-2.451 1.096-2.451 2.45 0 1.352 1.099 2.449 2.451 2.449 1.353 0 2.45-1.097 2.45-2.449 0-1.354-1.097-2.45-2.45-2.45m4.333 2.653h-1.465c-0.057 0.808-0.445 1.525-1.035 2.016 1.384-0.364 2.37-1.122 2.5-2.016m1.612 0h-1.177c-0.078 0.686-0.557 1.302-1.296 1.774 1.38-0.413 2.32-1.06 2.473-1.774m-5.945 2.673c-3.534 0-6.396-1.289-6.396-2.876 0-1.589 2.862-2.877 6.396-2.877 3.532 0 6.396 1.288 6.396 2.877 0 1.587-2.864 2.876-6.396 2.876"/>
   </g>
   <g transform="translate(56.0723,13.705)">
    <path d="m0 0c0 0.187 0.148 0.339 0.335 0.339 0.186 0 0.337-0.152 0.337-0.339 0-0.185-0.151-0.336-0.337-0.336-0.187 0-0.335 0.151-0.335 0.336"/>
   </g>
   <g transform="translate(56.42,15.1845)">
    <path d="m0 0 0.45 0.449c-0.277 0.28-0.626 0.28-0.903 0z"/>
   </g>
   <g transform="translate(56.7784,14.6581)">
    <path d="m0 0c0 0.346 0.28 0.627 0.627 0.627 0.348 0 0.627-0.281 0.627-0.627 0-0.347-0.279-0.628-0.627-0.628-0.347 0-0.627 0.281-0.627 0.628"/>
   </g>
   <g transform="translate(54.7999,14.6581)">
    <path d="m0 0c0 0.346 0.28 0.627 0.627 0.627 0.346 0 0.626-0.281 0.626-0.627 0-0.347-0.28-0.628-0.626-0.628-0.347 0-0.627 0.281-0.627 0.628"/>
   </g>
   <g transform="translate(54.836,12.7196)">
    <path d="m0 0c0 0.349 0.28 0.626 0.626 0.626s0.626-0.277 0.626-0.626c0-0.344-0.28-0.625-0.626-0.625s-0.626 0.281-0.626 0.625"/>
   </g>
   <g transform="translate(56.7276,12.7314)">
    <path d="m0 0c0 0.346 0.28 0.628 0.625 0.628 0.347 0 0.629-0.282 0.629-0.628s-0.282-0.626-0.629-0.626c-0.345 0-0.625 0.28-0.625 0.626"/>
   </g>
   <g transform="translate(56.4073,12.2421)">
    <path d="m0 0-0.452-0.446c0.279-0.28 0.625-0.28 0.905 0z"/>
   </g>
   <g transform="translate(57.8536,13.703)">
    <path d="m0 0 0.45-0.452c0.279 0.278 0.279 0.629 0 0.903z"/>
   </g>
   <g transform="translate(54.9356,13.703)">
    <path d="m0 0-0.446-0.452c-0.279 0.278-0.279 0.629 0 0.903z"/>
   </g>
   <g transform="translate(41.1011,43.9428)">
    <path d="m0 0h0.217c0.5 0 1.21 0.052 1.21 1.647 0 1.5-0.701 1.551-1.21 1.551h-0.217zm-1.26 4.038h1.356c0.881 0 2.673-5e-3 2.673-2.405 0-0.915-0.322-1.736-0.944-2.136-0.512-0.34-1.132-0.34-1.575-0.34h-1.51zm-0.657 0v-0.84h-2.238v-1.126h1.736v-0.843h-1.736v-1.199h2.238v-0.873h-3.5v4.881zm-3.985 0v-0.913h-1.173v-3.968h-1.263v3.968h-1.15v0.913zm-3.705-3.165c-0.097-0.99-0.753-1.788-2.017-1.788-1.751 0-2.167 1.397-2.167 2.51 0 0.886 0.259 2.516 2.187 2.516 0.873 0 1.306-0.336 1.564-0.658 0.336-0.423 0.381-0.933 0.406-1.229l-1.149-0.074c-0.035 0.39-0.087 1.092-0.813 1.092-0.718 0-0.863-0.74-0.863-1.724 0-0.823 0.11-1.56 0.863-1.56 0.683 0 0.778 0.717 0.821 0.979zm-5.099-1.716h-1.264v4.881h1.264zm-4.745 4.093v-1.376h0.561c0.545 0 0.744 0.298 0.744 0.702 0 0.674-0.58 0.674-0.796 0.674zm0.545 0.788c0.578 0 1.14 0 1.581-0.416 0.302-0.285 0.414-0.672 0.414-1.06 0-0.864-0.527-1.125-0.813-1.273l1.063-2.132h-1.381l-0.77 1.927h-0.639v-1.927h-1.263v4.881zm-2.291 0v-0.913h-1.173v-3.968h-1.265v3.968h-1.149v0.913zm-4.916-1.402c-0.069 0.176-0.234 0.606-0.813 0.606-0.424 0-0.603-0.249-0.603-0.446 0-0.336 0.379-0.453 0.992-0.65 0.648-0.215 1.591-0.513 1.591-1.501 0-0.834-0.693-1.56-2.048-1.56-0.416 0-1.037 0.066-1.505 0.511-0.319 0.318-0.424 0.616-0.492 0.829l1.105 0.262c0.07-0.219 0.235-0.729 0.926-0.729 0.432 0 0.735 0.204 0.735 0.524 0 0.345-0.364 0.485-0.796 0.615-0.786 0.24-1.736 0.528-1.736 1.521 0 0.762 0.578 1.493 1.838 1.493 1.437 0 1.741-0.812 1.86-1.134zm-3.129 1.402v-0.84h-2.237v-1.126h1.736v-0.843h-1.736v-1.199h2.237v-0.873h-3.498v4.881zm-6.984-0.788v-1.376h0.563c0.546 0 0.744 0.298 0.744 0.702 0 0.674-0.58 0.674-0.795 0.674zm0.546 0.788c0.579 0 1.14 0 1.581-0.416 0.304-0.285 0.417-0.672 0.417-1.06 0-0.864-0.529-1.125-0.813-1.273l1.063-2.132h-1.382l-0.769 1.927h-0.643v-1.927h-1.261v4.881zm-4.282-6.882h45.211v-40.005h-45.211zm-1.139-41.099h47.556v50.393h-47.556z"/>
   </g>
   <g transform="translate(28.7388,26.7865)">
    <path d="m0 0c-0.099-4.667-0.916-4.306-5.266-4.41-0.523-0.013-3.029 0-3.951 0 0.032 1.447 0.032 7.571 0.032 7.571 0 1.011 0.571 1.746 1.653 1.782 7.399 0.231 7.624-0.612 7.532-4.943m-5.65-9.269c0.71-0.944 1.256-1.709 1.256-1.709 0.968-1.283 5.575-8.961 7.632-9.135l10.285-0.013c1.69 0.029 2.058 2.261 0.155 2.742-0.815 0.269-3.395 0.459-6.784 4.723-1.975 2.428-3.775 4.661-4.611 5.822 4.719 0 6.353 1.403 6.412 6.758 0.051 9.344-3.669 7.755-13.871 7.981 0 0-15.908 0.053-16.289 0.076-3.454 0.109-4.492-2.817 0.231-3.041 2.431-0.175 3.699-1.459 3.882-5.014v-12.664c-0.146-3.662-0.212-4.488-4.587-4.838-2.388-0.03-2.701-2.535 0.568-2.554 0.447 0.013 15.814 0.022 15.829 0.022 3.523-0.14 3.193 2.416 0.874 2.537-3.075 0.233-4.521-0.256-4.631 3.638-0.017 0.417-0.089 2.736-0.089 3.48 9e-3 3.329 2.492 3.002 3.738 1.189" fill="#d71920"/>
   </g>
  </g>
 </g>
</svg>
