<?xml version="1.0" encoding="UTF-8"?>
<svg version="1.1" viewBox="0 0 103.1109 63.776" xmlns="http://www.w3.org/2000/svg">
 <defs>
  <clipPath id="a">
   <path d="M 0,47.832 H 77.333 V 0 H 0 Z"/>
  </clipPath>
 </defs>
 <g transform="matrix(1.333333 0 0 -1.333333 0 63.776)">
  <path d="m0 0h62.182v47.832h-62.182z" fill="#fff"/>
  <g clip-path="url(#a)">
   <g transform="translate(43.9658,37.196)">
    <path d="m0 0h0.287c0.357 0 0.587 0.076 0.783 0.428 0.145 0.257 0.203 0.567 0.203 0.865 0 0.316-0.084 0.655-0.262 0.907-0.196 0.28-0.414 0.322-0.719 0.322h-0.292zm0.209 3.26c0.526 0 0.98-0.035 1.378-0.45 0.394-0.412 0.564-0.966 0.564-1.545 0-0.539-0.147-1.061-0.471-1.464-0.364-0.439-0.813-0.555-1.327-0.555h-1.205v4.014zm-3.385-0.78v-0.813h1.385v-0.753h-1.385v-0.891h1.756v-0.777h-2.607v4.014h2.607v-0.78zm-1.391-0.017h-0.916v-3.217h-0.852v3.217h-0.927v0.797h2.695zm-3.879-0.351c-0.107 0.34-0.305 0.474-0.63 0.474-0.228 0-0.504-0.064-0.504-0.375 0-0.292 0.318-0.363 0.526-0.402 0.299-0.072 0.698-0.153 0.954-0.34 0.297-0.217 0.479-0.551 0.479-0.948 0-0.392-0.172-0.767-0.453-1.006-0.293-0.252-0.691-0.328-1.059-0.328-0.688 0-1.31 0.328-1.477 1.111l0.789 0.2c0.108-0.422 0.385-0.568 0.762-0.568 0.245 0 0.57 0.1 0.57 0.433s-0.415 0.398-0.638 0.45c-0.65 0.147-1.291 0.357-1.291 1.235 0 0.374 0.134 0.702 0.396 0.942 0.266 0.245 0.581 0.327 0.916 0.327 0.639 0 1.16-0.245 1.383-0.941zm-4.183 0.368v-0.813h1.384v-0.753h-1.384v-0.891h1.758v-0.777h-2.611v4.014h2.611v-0.78zm-3.117-1.835v0.749h1.502v-2.148h-0.392l-0.119 0.462c-0.272-0.363-0.569-0.521-0.995-0.521-1.071 0-1.516 0.977-1.516 2.03 0 1.088 0.487 2.1 1.588 2.1 0.789 0 1.323-0.526 1.434-1.376l-0.811-0.122c-0.036 0.404-0.231 0.744-0.643 0.744-0.602 0-0.694-0.861-0.694-1.358 0-0.52 0.135-1.258 0.732-1.258 0.374 0 0.628 0.287 0.605 0.698zm-3.613 0v0.749h1.502v-2.148h-0.388l-0.122 0.462c-0.274-0.363-0.57-0.521-0.996-0.521-1.071 0-1.514 0.977-1.514 2.03 0 1.088 0.486 2.1 1.588 2.1 0.788 0 1.322-0.526 1.432-1.376l-0.808-0.122c-0.038 0.404-0.235 0.744-0.644 0.744-0.604 0-0.694-0.861-0.694-1.358 0-0.52 0.133-1.258 0.73-1.258 0.373 0 0.628 0.287 0.608 0.698zm-2.094 0.186c0-0.438 7e-3 -0.895-0.297-1.223-0.293-0.321-0.726-0.421-1.125-0.421-0.383 0-0.826 0.063-1.118 0.345-0.361 0.345-0.378 0.808-0.378 1.299v2.429h0.926v-2.429c0-0.186-4e-3 -0.456 0.082-0.62 0.111-0.211 0.34-0.27 0.547-0.27 0.17 0 0.421 0.059 0.528 0.218 0.115 0.181 0.101 0.461 0.101 0.672v2.429h0.734zm-4.309 1.281c-0.107 0.34-0.304 0.474-0.629 0.474-0.228 0-0.508-0.064-0.508-0.375 0-0.292 0.322-0.363 0.528-0.402 0.299-0.072 0.699-0.153 0.955-0.34 0.296-0.217 0.479-0.551 0.479-0.948 0-0.392-0.172-0.767-0.454-1.006-0.295-0.252-0.693-0.328-1.057-0.328-0.689 0-1.312 0.328-1.478 1.111l0.789 0.2c0.107-0.422 0.382-0.568 0.761-0.568 0.244 0 0.569 0.1 0.569 0.433s-0.414 0.398-0.636 0.45c-0.651 0.147-1.29 0.357-1.29 1.235 0 0.374 0.132 0.702 0.392 0.942 0.268 0.245 0.582 0.327 0.917 0.327 0.64 0 1.16-0.245 1.385-0.941zm37.155 5.871v-0.814h1.382v-0.755h-1.382v-0.889h1.756v-0.777h-2.61v4.012h2.61v-0.777zm-2.404-0.778c-7e-3 0.444-0.146 0.86-0.614 0.86-0.602 0-0.66-0.866-0.66-1.352 0-0.549 0.058-1.257 0.702-1.257 0.401 0 0.587 0.368 0.635 0.754l0.832-0.059c-0.092-0.918-0.667-1.462-1.509-1.462-1.086 0-1.611 0.971-1.611 2.065 0 1.112 0.541 2.066 1.637 2.066 0.917 0 1.387-0.584 1.483-1.55zm-2.862-2.457h-0.731l-1.4 2.697h-0.019v-2.697h-0.662v4.012h0.921l1.22-2.357h0.01v2.357h0.661zm-4.65 1.562-0.391 1.41-0.388-1.41zm1.339-1.562h-0.92l-0.224 0.824h-1.183l-0.227-0.824h-0.752l1.174 4.012h0.988zm-5.671 0.754h0.288c0.354 0 0.584 0.076 0.781 0.427 0.145 0.258 0.204 0.569 0.204 0.867 0 0.315-0.087 0.655-0.262 0.906-0.199 0.281-0.415 0.321-0.719 0.321h-0.292zm0.205 3.258c0.529 0 0.981-0.035 1.38-0.449 0.395-0.41 0.566-0.966 0.566-1.544 0-0.539-0.15-1.06-0.474-1.464-0.364-0.438-0.81-0.555-1.326-0.555h-1.204v4.012zm-1.876-4.012h-0.854v4.012h0.854zm-1.616 1.585c0-0.438 5e-3 -0.895-0.298-1.223-0.293-0.322-0.724-0.421-1.122-0.421-0.385 0-0.827 0.064-1.12 0.345-0.363 0.345-0.378 0.808-0.378 1.299v2.427h0.925v-2.427c0-0.188-4e-3 -0.457 0.082-0.62 0.112-0.211 0.34-0.269 0.547-0.269 0.172 0 0.422 0.058 0.529 0.216 0.117 0.182 0.1 0.462 0.1 0.673v2.427h0.735zm-5.129-0.188v0.75h1.5v-2.147h-0.387l-0.121 0.462c-0.274-0.362-0.571-0.521-0.998-0.521-1.071 0-1.514 0.976-1.514 2.03 0 1.088 0.486 2.101 1.587 2.101 0.791 0 1.322-0.527 1.433-1.375l-0.809-0.123c-0.037 0.404-0.234 0.743-0.644 0.743-0.602 0-0.692-0.86-0.692-1.358 0-0.52 0.133-1.257 0.73-1.257 0.372 0 0.627 0.286 0.606 0.695zm-3.506-0.603v-0.794h-2.322v4.012h0.853v-3.218zm-4.139 0.768-0.389 1.41-0.389-1.41zm1.342-1.562h-0.921l-0.224 0.824h-1.182l-0.229-0.824h-0.753l1.172 4.012h0.992zm-3.203 3.218h-0.916v-3.218h-0.854v3.218h-0.926v0.794h2.696zm-3.235-3.218h-0.73l-1.402 2.697h-0.019v-2.697h-0.661v4.012h0.921l1.219-2.357h0.01v2.357h0.662zm-5.145 3.235v-0.814h1.383v-0.755h-1.383v-0.889h1.757v-0.777h-2.609v4.012h2.609v-0.777zm-3.598-0.96h0.469c0.176 0 0.368-0.017 0.523 0.082 0.138 0.094 0.211 0.281 0.211 0.457 0 0.158-0.085 0.327-0.206 0.41-0.144 0.099-0.39 0.075-0.551 0.075h-0.446zm0-2.275h-0.851v4.012h1.54c0.324 0 0.654-4e-3 0.936-0.204 0.298-0.215 0.464-0.608 0.464-0.999 0-0.457-0.24-0.879-0.636-1.036l0.679-1.773h-0.949l-0.56 1.585h-0.623zm-2.707 1.562-0.388 1.41-0.39-1.41zm1.342-1.562h-0.92l-0.226 0.824h-1.18l-0.23-0.824h-0.751l1.173 4.012h0.988zm-4.81 2.217c0.203 0 0.371 0 0.521 0.176 0.081 0.099 0.117 0.228 0.117 0.358 0 0.155-0.058 0.32-0.175 0.419-0.133 0.112-0.311 0.112-0.469 0.112h-0.474v-1.065zm-0.48-2.217h-0.853v4.012h1.376c0.356 0 0.68 0 0.985-0.227 0.307-0.24 0.472-0.585 0.472-1 0-0.381-0.121-0.766-0.394-1.018-0.313-0.287-0.649-0.282-1.038-0.282h-0.548zm-3.416-6.849h59.84v-33.998h-59.84zm-1.14-35.095h62.182v47.832h-62.182z"/>
   </g>
   <g transform="translate(18.8018,8.5294)">
    <path d="m0 0c-2.144 0.375-3.271 0.603-3.189 2.828l-0.046 3.788c0.695-0.033 1.436-0.015 2.05-0.015 8.266 0 12.749-0.789 12.195 7.789-0.1 5.899-4.132 5.647-12.771 5.647-2.986 0-5.318-0.065-7.038-0.065-1.269 0-2.161 0.044-3.943-0.049-1.694-0.039-1.805-1.559-0.281-2.054 1.687-0.726 3.08-0.203 3.192-2.369v-12.84c-0.037-2.567-1.672-2.4-2.498-2.737-2.258-0.187-1.997-2.143-0.474-2.2 0.883-0.031 2.447-0.02 4.332-0.02 3.846 0 8.416-0.038 9.432-8e-3 1.445 0.048 1.632 2.118-0.961 2.305m-3.189 9.206v7.378c0 0.749 0.528 0.916 2.167 0.916 3.585 0.05 4.66-0.744 4.932-3.405 0.075-5.188-1.658-4.92-5.996-4.92-0.37 0-0.738 0-1.103 0.031" fill="#f15a29"/>
   </g>
   <g transform="translate(48.5816,13.922)">
    <path d="m0 0c-0.195 0.908-0.896 0.913-1.919 1.24-2.029 0.281-2.528 2.086-0.274 2.217h3.334c1.779 0.02 5.718 0.085 6.846 0.028 2.047-0.046 2.495-1.51 0.017-2.169-0.652-0.174-1.729-0.773-1.749-2.049-6e-3 -0.676 0-4.848 0-4.848s-1.089-2.783-11.735-2.594c-6.564 0.154-11.18 0.332-11.443 11.164-0.036 14.041 8.817 12.446 12.259 12.707 4.886-0.073 7.442-0.675 8.87-1.204 2.192-0.77 2.285-1.829 2.317-3.747 0.03-1.931-0.398-3.733-2.575-3.828-3.052-0.256-3.281 1.087-3.499 2.311-0.449 3.611-0.687 3.807-4.586 3.835-5.665 0.037-6.288-2.939-6.159-9.665 0.104-5.072 0.2-8.753 5.728-8.676 2.955-7e-3 4.619 0.204 4.619 2.348 0 0 0.16 1.923-0.051 2.93" fill="#f15a29"/>
   </g>
   <g transform="translate(74.4111,11.4943)">
    <path d="m0 0c0.731 0.465 1.207 1.075 1.294 1.751h1.171c-0.166-0.705-1.101-1.341-2.465-1.751m-0.604 1.751h1.464c-0.145-0.885-1.127-1.631-2.499-1.99 0.585 0.481 0.972 1.19 1.035 1.99m-7.196 0h1.466c0.061-0.8 0.448-1.509 1.031-1.99-1.37 0.359-2.35 1.105-2.497 1.99m-1.605 0h1.172c0.088-0.676 0.563-1.286 1.294-1.751-1.366 0.41-2.299 1.046-2.466 1.751m2.466 2.203c-0.739-0.469-1.218-1.088-1.297-1.775h-1.172c0.151 0.714 1.088 1.362 2.469 1.775m0.604-1.775h-1.467c0.131 0.896 1.118 1.654 2.499 2.016-0.589-0.488-0.977-1.206-1.032-2.016m2.867-2.649c-1.353 0-2.45 1.095-2.45 2.448 0 1.352 1.097 2.447 2.45 2.447 1.351 0 2.448-1.095 2.448-2.447 0-1.353-1.097-2.448-2.448-2.448m4.33 2.649h-1.466c-0.057 0.81-0.443 1.528-1.033 2.016 1.38-0.362 2.368-1.12 2.499-2.016m1.607 0h-1.172c-0.079 0.687-0.559 1.306-1.297 1.775 1.38-0.413 2.318-1.061 2.469-1.775m-5.937 2.675c-3.531 0-6.393-1.289-6.393-2.876 0-1.589 2.862-2.878 6.393-2.878 3.528 0 6.39 1.289 6.39 2.878 0 1.587-2.862 2.876-6.39 2.876"/>
   </g>
   <g transform="translate(70.5938,13.4709)">
    <path d="m0 0c0 0.187 0.15 0.339 0.338 0.339 0.184 0 0.336-0.152 0.336-0.339 0-0.186-0.152-0.337-0.336-0.337-0.188 0-0.338 0.151-0.338 0.337"/>
   </g>
   <g transform="translate(70.9434,14.9494)">
    <path d="m0 0 0.45 0.448c-0.277 0.277-0.627 0.277-0.904 0z"/>
   </g>
   <g transform="translate(71.2998,14.423)">
    <path d="m0 0c0 0.345 0.282 0.626 0.627 0.626 0.348 0 0.627-0.281 0.627-0.626 0-0.346-0.279-0.627-0.627-0.627-0.345 0-0.627 0.281-0.627 0.627"/>
   </g>
   <g transform="translate(69.3223,14.423)">
    <path d="m0 0c0 0.345 0.281 0.626 0.628 0.626 0.344 0 0.624-0.281 0.624-0.626 0-0.346-0.28-0.627-0.624-0.627-0.347 0-0.628 0.281-0.628 0.627"/>
   </g>
   <g transform="translate(69.3584,12.4855)">
    <path d="m0 0c0 0.345 0.281 0.626 0.626 0.626s0.627-0.281 0.627-0.626c0-0.346-0.282-0.627-0.627-0.627s-0.626 0.281-0.626 0.627"/>
   </g>
   <g transform="translate(71.2481,12.4953)">
    <path d="m0 0c0 0.349 0.281 0.629 0.626 0.629 0.348 0 0.629-0.28 0.629-0.629 0-0.344-0.281-0.625-0.629-0.625-0.345 0-0.626 0.281-0.626 0.625"/>
   </g>
   <g transform="translate(70.9317,12.0099)">
    <path d="m0 0-0.454-0.449c0.277-0.279 0.627-0.279 0.904 0z"/>
   </g>
   <g transform="translate(72.376,13.4689)">
    <path d="m0 0 0.448-0.452c0.28 0.277 0.28 0.626 0 0.902z"/>
   </g>
   <g transform="translate(69.46,13.4689)">
    <path d="m0 0-0.447-0.452c-0.278 0.277-0.278 0.626 0 0.902z"/>
   </g>
   <g transform="translate(70.3604,4.6027)">
    <path d="m0 0h0.406c0.462 0 0.855 0.167 0.855 0.602 0 0.308-0.224 0.614-0.855 0.614-0.181 0-0.307-0.013-0.406-0.029zm0-1.947h-0.558v3.512c0.292 0.043 0.574 0.086 0.992 0.086 0.533 0 0.881-0.112 1.092-0.267 0.209-0.154 0.323-0.391 0.323-0.727 0-0.462-0.309-0.742-0.686-0.854v-0.03c0.307-0.053 0.517-0.333 0.587-0.852 0.085-0.546 0.168-0.755 0.225-0.868h-0.589c-0.084 0.113-0.168 0.434-0.239 0.896-0.084 0.447-0.308 0.614-0.755 0.614h-0.392zm0.587 4.495c-1.384 0-2.518-1.193-2.518-2.661 0-1.497 1.134-2.674 2.532-2.674 1.402-0.013 2.521 1.177 2.521 2.661 0 1.481-1.119 2.674-2.521 2.674zm0.014 0.49c1.723 0 3.094-1.401 3.094-3.151 0-1.778-1.371-3.163-3.108-3.163-1.72 0-3.119 1.385-3.119 3.163 0 1.75 1.399 3.151 3.119 3.151z"/>
   </g>
  </g>
 </g>
</svg>
