<?xml version="1.0" encoding="UTF-8"?>
<svg version="1.1" viewBox="0 0 115.8328 52.88533" xmlns="http://www.w3.org/2000/svg">
 <defs>
  <clipPath id="a">
   <path d="M 0,39.664 H 86.875 V 0 H 0 Z"/>
  </clipPath>
 </defs>
 <g transform="matrix(1.333333 0 0 -1.333333 0 52.88533)">
  <path d="m0 0h71.617v39.664h-71.617z" fill="#fff"/>
  <g clip-path="url(#a)">
   <g transform="translate(79.946,4.5798)">
    <path d="m0 0h0.408c0.464 0 0.857 0.167 0.857 0.601 0 0.307-0.227 0.618-0.857 0.618-0.179 0-0.305-0.018-0.408-0.032zm0-1.95h-0.559v3.517c0.296 0.04 0.58 0.083 0.996 0.083 0.534 0 0.882-0.113 1.092-0.267 0.209-0.153 0.323-0.39 0.323-0.726 0-0.461-0.31-0.741-0.688-0.856v-0.027c0.312-0.053 0.522-0.336 0.59-0.856 0.084-0.543 0.168-0.754 0.224-0.868h-0.586c-0.085 0.114-0.171 0.434-0.242 0.895-0.084 0.453-0.306 0.618-0.754 0.618h-0.396zm0.593 4.498c-1.387 0-2.524-1.193-2.524-2.662 0-1.497 1.137-2.676 2.535-2.676 1.405-0.016 2.523 1.179 2.523 2.666 0 1.479-1.118 2.672-2.523 2.672zm0.011 0.491c1.723 0 3.096-1.403 3.096-3.153 0-1.781-1.373-3.164-3.107-3.164-1.725 0-3.124 1.383-3.124 3.164 0 1.75 1.399 3.153 3.124 3.153z"/>
   </g>
   <g transform="translate(83.9519,11.7312)">
    <path d="m0 0c0.731 0.462 1.207 1.074 1.295 1.751h1.17c-0.165-0.707-1.099-1.343-2.465-1.751m-0.604 1.751h1.463c-0.143-0.887-1.13-1.633-2.499-1.993 0.583 0.481 0.973 1.191 1.036 1.993m-7.202 0h1.465c0.063-0.802 0.45-1.512 1.034-1.993-1.369 0.36-2.352 1.106-2.499 1.993m-1.605 0h1.173c0.09-0.677 0.562-1.289 1.294-1.751-1.366 0.408-2.301 1.044-2.467 1.751m2.467 2.204c-0.74-0.47-1.219-1.091-1.297-1.775h-1.175c0.153 0.714 1.09 1.362 2.472 1.775m0.603-1.775h-1.466c0.131 0.895 1.12 1.653 2.5 2.017-0.589-0.491-0.977-1.206-1.034-2.017m2.868-2.653c-1.352 0-2.45 1.098-2.45 2.45 0 1.353 1.098 2.447 2.45 2.447 1.353 0 2.451-1.094 2.451-2.447 0-1.352-1.098-2.45-2.451-2.45m4.334 2.653h-1.465c-0.057 0.811-0.446 1.526-1.036 2.017 1.383-0.364 2.371-1.122 2.501-2.017m1.609 0h-1.174c-0.079 0.684-0.561 1.305-1.296 1.775 1.381-0.413 2.32-1.061 2.47-1.775m-5.943 2.675c-3.532 0-6.394-1.289-6.394-2.878s2.862-2.88 6.394-2.88c3.533 0 6.396 1.291 6.396 2.88s-2.863 2.878-6.396 2.878"/>
   </g>
   <g transform="translate(80.1325,13.7078)">
    <path d="m0 0c0 0.186 0.148 0.336 0.337 0.336 0.184 0 0.336-0.15 0.336-0.336 0-0.187-0.152-0.34-0.336-0.34-0.189 0-0.337 0.153-0.337 0.34"/>
   </g>
   <g transform="translate(80.4802,15.1863)">
    <path d="m0 0 0.451 0.449c-0.277 0.277-0.628 0.277-0.904 0z"/>
   </g>
   <g transform="translate(80.8405,14.6609)">
    <path d="m0 0c0 0.346 0.278 0.625 0.626 0.625 0.347 0 0.628-0.279 0.628-0.625 0-0.348-0.281-0.629-0.628-0.629-0.348 0-0.626 0.281-0.626 0.629"/>
   </g>
   <g transform="translate(78.8601,14.6609)">
    <path d="m0 0c0 0.346 0.281 0.625 0.626 0.625 0.348 0 0.625-0.279 0.625-0.625 0-0.348-0.277-0.629-0.625-0.629-0.345 0-0.626 0.281-0.626 0.629"/>
   </g>
   <g transform="translate(78.8962,12.7215)">
    <path d="m0 0c0 0.343 0.281 0.628 0.625 0.628 0.347 0 0.628-0.285 0.628-0.628 0-0.345-0.281-0.626-0.628-0.626-0.344 0-0.625 0.281-0.625 0.626"/>
   </g>
   <g transform="translate(80.7868,12.7332)">
    <path d="m0 0c0 0.346 0.28 0.627 0.627 0.627 0.348 0 0.626-0.281 0.626-0.627 0-0.35-0.278-0.626-0.626-0.626-0.347 0-0.627 0.276-0.627 0.626"/>
   </g>
   <g transform="translate(80.4695,12.2439)">
    <path d="m0 0-0.455-0.446c0.276-0.281 0.626-0.281 0.905 0z"/>
   </g>
   <g transform="translate(81.9157,13.7048)">
    <path d="m0 0 0.447-0.453c0.282 0.279 0.282 0.629 0 0.904z"/>
   </g>
   <g transform="translate(78.9987,13.7048)">
    <path d="m0 0-0.451-0.453c-0.278 0.279-0.278 0.629 0 0.904z"/>
   </g>
   <g transform="translate(56.57,34.1971)">
    <path d="m0 0v-2.063h-1.12v2.063l-1.525 2.84h1.307l0.924-1.866 0.914 1.866h1.01zm-2.223-1.09v-0.973h-3.058v4.903h1.123v-3.93zm-4.095-0.973h-0.959l-1.848 3.294h-0.026v-3.294h-0.87v4.903h1.214l1.606-2.882h0.014v2.882h0.869zm-7.344 3.477c-0.11-0.29-0.154-0.712-0.154-1.019 0-0.616 0.091-1.593 0.884-1.593 0.386 0 0.598 0.191 0.724 0.557 0.113 0.3 0.147 0.704 0.147 1.029 0 0.358-0.034 0.777-0.175 1.107-0.141 0.329-0.345 0.478-0.696 0.478-0.386 0-0.595-0.199-0.73-0.559m-0.828-2.778c-0.35 0.506-0.504 1.143-0.504 1.759 0 1.301 0.637 2.515 2.062 2.515 0.639 0 1.146-0.217 1.529-0.75 0.345-0.479 0.52-1.174 0.52-1.765 0-0.557-0.146-1.237-0.454-1.703-0.375-0.558-0.943-0.828-1.595-0.828s-1.179 0.23-1.558 0.772m-4.457 2.801c-0.14 0.414-0.402 0.58-0.83 0.58-0.301 0-0.664-0.08-0.664-0.457 0-0.36 0.42-0.446 0.693-0.494 0.392-0.087 0.919-0.184 1.255-0.416 0.391-0.262 0.633-0.671 0.633-1.158 0-0.477-0.225-0.937-0.598-1.23-0.385-0.306-0.91-0.398-1.395-0.398-0.906 0-1.725 0.398-1.944 1.36l1.038 0.241c0.141-0.514 0.505-0.694 1.005-0.694 0.32 0 0.749 0.122 0.749 0.528 0 0.41-0.547 0.486-0.841 0.553-0.855 0.176-1.698 0.433-1.698 1.506 0 0.456 0.174 0.859 0.52 1.151 0.35 0.301 0.764 0.401 1.207 0.401 0.84 0 1.527-0.301 1.824-1.152zm-3.156 0.43h-1.208v-3.93h-1.123v3.93h-1.22v0.973h3.551zm-3.333-2.957v-0.973h-3.058v4.903h1.122v-3.93zm-4.025 0.962c0-0.534 0.01-1.093-0.393-1.494-0.385-0.392-0.953-0.514-1.48-0.514-0.506 0-1.087 0.078-1.474 0.422-0.477 0.421-0.496 0.986-0.496 1.586v2.968h1.219v-2.968c0-0.228-6e-3 -0.559 0.106-0.757 0.147-0.257 0.45-0.327 0.719-0.327 0.229 0 0.556 0.07 0.698 0.262 0.154 0.222 0.134 0.567 0.134 0.822v2.968h0.967zm-7.435-1.014h0.378c0.474 0 0.773 0.093 1.033 0.52 0.189 0.316 0.266 0.692 0.266 1.059 0 0.384-0.111 0.798-0.343 1.108-0.259 0.345-0.548 0.392-0.946 0.392h-0.388zm0.275 3.982c0.693 0 1.291-0.045 1.816-0.553 0.52-0.499 0.744-1.179 0.744-1.886 0-0.657-0.197-1.294-0.625-1.786-0.475-0.537-1.067-0.678-1.747-0.678h-1.584v4.903zm-3.815-2.996-0.511 1.722-0.515-1.722zm1.768-1.907h-1.214l-0.294 1.005h-1.556l-0.304-1.005h-0.989l1.543 4.903h1.306zm-16.762-2.208h69.271v-28.829h-69.271zm-1.14-29.926h71.617v39.664h-71.617z"/>
   </g>
   <g transform="translate(37.8083,19.3767)">
    <path d="m0 0c0.014 1.877-0.398 2.099-1.369 2.661-1.681 0.694-3.225 0.801-6.929 0.757-3.28-0.089-4.706-1.183-5.852-3.272-1.143-2.343-1.373-7.131-0.394-9.533 0.327-0.65 0.363-2.002 3.335-2.864 2.201-0.484 6.918-0.478 9.496 0.466-1e-3 -2e-3 1.746 0.607 1.746 2.538 0.011 0.455-0.802 1.228-2.605-0.027-1.558-1.2-4.882-1.36-6.274-0.758-0.783 0.333-1.171 0.882-1.499 2.053-0.171 0.561-0.747 6.479 0.484 8.185 0.773 1.395 3.38 1.443 4.634 1.148 1.262-0.474 1.114-0.948 1.608-2.992 0.459-0.87 1.137-0.851 2.13-0.825 1.607 0.085 1.489 1.226 1.489 2.463" fill="#21409a"/>
   </g>
   <g transform="translate(42.072,16.1922)">
    <path d="m0 0h1.501c1.036-0.011 1.288-1.025 1.262-1.658-0.014-0.318-0.31-1.355-1.262-1.355l-2.817 0.014c-0.936 0.017-1.428 0.469-1.444 1.341-0.021 1.11 0.508 1.582 1.448 1.658z" fill="#21409a" fill-rule="evenodd"/>
   </g>
   <g transform="translate(46.3562,21.3259)">
    <path d="m0 0c1.886 0.647 2.782 0.992 3.933 1.152 0.775 0.017 1.858 0.047 2.443 0.027 0.256 0 0.258-0.189 0.248-0.368-0.022-0.557 0-1.273 0-2.492v-9.36c-0.013-1.235 0.312-1.716 1.48-1.733h0.197c1.048-0.013 1.036-1.444 0.117-1.455-0.954 0-2.557 0.011-4.198 0.011h-3.529c-0.951-0.03-1.138 1.367 0.044 1.464h0.363c0.743 0.119 1.104 0.163 1.148 1.713l0.043 8.176c-0.028 0.635 0.23 1.342-1.093 1.189-1.947-0.411-2.289 1.241-1.196 1.676" fill="#21409a" fill-rule="evenodd"/>
   </g>
   <g transform="translate(17.3425,13.0857)">
    <path d="m0 0c1e-3 0 9e-3 6.03 9e-3 6.03-0.028 1.809-0.949 1.703-1.49 1.891-1.605 0.264-1.311 1.52-0.242 1.558 0.642-0.013 5.266 0.022 5.886 0 1.069-0.038 1.449-0.994 0.061-1.508-0.307-0.139-1.58-0.132-1.61-1.941l0.046-10.614s0.126-1.516-0.913-1.516c-8e-3 0-1.966 0-1.966 5e-3 -0.571-0.03-0.897 0.195-1.249 0.579 0 0-7.301 9.644-7.3 9.644-0.06 0.132-0.143 0.167-0.096-0.011l0.017-6.626c-0.052-1.568 0.262-1.862 1.59-2.045 1.833-0.252 1.281-1.508 0.282-1.539 0-2e-3 -6.213-7e-3 -6.213-7e-3 -1.249 0.045-1.241 1.357 0.28 1.583 3e-3 0 1.489 0.061 1.472 1.886v9.033c-0.082 1.519-0.868 1.259-2.107 1.615-0.769 0.218-0.75 1.434 0.439 1.462 1.256 0.065 2.109 0.042 2.998 0.041 0.99-0.019 2.426 0.077 2.765-0.32l7.237-9.312s0.159-0.307 0.104 0.112" fill="#21409a" fill-rule="evenodd"/>
   </g>
   <g transform="translate(64.0739,19.7205)">
    <path d="m0 0c-0.551 0.027-1.406 0-2.65-0.027-3.231-0.222-0.911-1.489-3.148-1.991-2.709-0.357-2.348 1.081-2.429 1.799 0.025 1.328 0.11 1.823 0.854 2.372 1.053 0.828 3.314 0.941 5.773 0.941h3.976c0.803-0.031 1.767-0.219 1.989-1.082 0.141-0.796 0.141-1.456-0.192-2.096-2.208-4.887-3.424-7.646-5.086-11.541-0.245-0.664-0.358-1.078-1.157-1.104h-2.928c-0.883 0-0.495 0.825-0.276 1.323 2.101 4.471 3.674 7.954 5.274 11.406" fill="#21409a" fill-rule="evenodd"/>
   </g>
  </g>
 </g>
</svg>
