<?xml version="1.0" encoding="UTF-8"?>
<svg version="1.1" viewBox="0 0 74.49547 43.1" xmlns="http://www.w3.org/2000/svg">
 <defs>
  <clipPath id="a">
   <path d="M 0,32.325 H 55.872 V 0 H 0 Z"/>
  </clipPath>
 </defs>
 <g transform="matrix(1.333333 0 0 -1.333333 0 43.1)">
  <path d="m0 0h40.65v32.325h-40.65z" fill="#fff"/>
  <g clip-path="url(#a)">
   <g transform="translate(48.8996,4.6213)">
    <path d="m0 0h0.405c0.462 0 0.856 0.167 0.856 0.602 0 0.308-0.225 0.614-0.856 0.614-0.18 0-0.306-0.013-0.405-0.028zm0-1.947h-0.559v3.513c0.292 0.043 0.575 0.086 0.993 0.086 0.533 0 0.88-0.113 1.091-0.268 0.209-0.153 0.324-0.391 0.324-0.727 0-0.461-0.309-0.742-0.687-0.854v-0.029c0.308-0.054 0.518-0.333 0.588-0.853 0.085-0.546 0.168-0.755 0.225-0.868h-0.589c-0.084 0.113-0.168 0.435-0.24 0.896-0.084 0.448-0.307 0.615-0.754 0.615h-0.392zm0.587 4.495c-1.385 0-2.519-1.192-2.519-2.661 0-1.497 1.134-2.674 2.533-2.674 1.402-0.013 2.52 1.177 2.52 2.661 0 1.482-1.118 2.674-2.52 2.674zm0.014 0.49c1.722 0 3.093-1.401 3.093-3.151 0-1.777-1.371-3.163-3.107-3.163-1.721 0-3.119 1.386-3.119 3.163 0 1.75 1.398 3.151 3.119 3.151z"/>
   </g>
   <g transform="translate(52.9494,11.4944)">
    <path d="m0 0c0.731 0.465 1.206 1.075 1.294 1.751h1.171c-0.166-0.705-1.101-1.341-2.465-1.751m-0.604 1.751h1.464c-0.145-0.885-1.127-1.631-2.499-1.99 0.585 0.481 0.972 1.19 1.035 1.99m-7.196 0h1.466c0.062-0.8 0.448-1.509 1.031-1.99-1.37 0.359-2.349 1.105-2.497 1.99m-1.604 0h1.172c0.087-0.676 0.562-1.286 1.294-1.751-1.367 0.41-2.299 1.046-2.466 1.751m2.466 2.203c-0.74-0.469-1.219-1.088-1.297-1.775h-1.173c0.151 0.714 1.089 1.362 2.47 1.775m0.603-1.775h-1.467c0.131 0.896 1.118 1.654 2.499 2.016-0.589-0.488-0.976-1.206-1.032-2.016m2.867-2.649c-1.352 0-2.45 1.095-2.45 2.448 0 1.352 1.098 2.447 2.45 2.447 1.351 0 2.448-1.095 2.448-2.447 0-1.353-1.097-2.448-2.448-2.448m4.33 2.649h-1.466c-0.057 0.81-0.443 1.528-1.033 2.016 1.38-0.362 2.368-1.12 2.499-2.016m1.608 0h-1.173c-0.079 0.687-0.559 1.306-1.297 1.775 1.38-0.413 2.318-1.061 2.47-1.775m-5.938 2.675c-3.531 0-6.392-1.288-6.392-2.876 0-1.589 2.861-2.878 6.392-2.878 3.529 0 6.39 1.289 6.39 2.878 0 1.588-2.861 2.876-6.39 2.876"/>
   </g>
   <g transform="translate(49.132,13.4714)">
    <path d="m0 0c0 0.186 0.15 0.338 0.338 0.338 0.184 0 0.336-0.152 0.336-0.338s-0.152-0.337-0.336-0.337c-0.188 0-0.338 0.151-0.338 0.337"/>
   </g>
   <g transform="translate(49.4816,14.9494)">
    <path d="m0 0 0.45 0.448c-0.277 0.277-0.627 0.277-0.904 0z"/>
   </g>
   <g transform="translate(49.8381,14.4231)">
    <path d="m0 0c0 0.345 0.282 0.626 0.627 0.626 0.349 0 0.627-0.281 0.627-0.626 0-0.346-0.278-0.627-0.627-0.627-0.345 0-0.627 0.281-0.627 0.627"/>
   </g>
   <g transform="translate(47.8605,14.4231)">
    <path d="m0 0c0 0.345 0.281 0.626 0.628 0.626 0.345 0 0.624-0.281 0.624-0.626 0-0.346-0.279-0.627-0.624-0.627-0.347 0-0.628 0.281-0.628 0.627"/>
   </g>
   <g transform="translate(47.8967,12.4851)">
    <path d="m0 0c0 0.345 0.281 0.626 0.626 0.626 0.346 0 0.627-0.281 0.627-0.626s-0.281-0.626-0.627-0.626c-0.345 0-0.626 0.281-0.626 0.626"/>
   </g>
   <g transform="translate(49.7863,12.4958)">
    <path d="m0 0c0 0.348 0.281 0.628 0.626 0.628 0.349 0 0.629-0.28 0.629-0.628 0-0.344-0.28-0.625-0.629-0.625-0.345 0-0.626 0.281-0.626 0.625"/>
   </g>
   <g transform="translate(49.4699,12.01)">
    <path d="m0 0-0.454-0.449c0.277-0.278 0.627-0.278 0.904 0z"/>
   </g>
   <g transform="translate(50.9142,13.4685)">
    <path d="m0 0 0.448-0.452c0.281 0.278 0.281 0.626 0 0.903z"/>
   </g>
   <g transform="translate(47.9982,13.4685)">
    <path d="m0 0-0.446-0.452c-0.279 0.278-0.279 0.626 0 0.903z"/>
   </g>
   <path d="m 1.137,31.061 h 38.31 V 1.097 H 1.137 Z M 0,0 H 40.65 V 32.325 H 0 Z"/>
   <g transform="translate(24.9191,11.987)">
    <path d="m0 0c-0.218 0.939-0.994 0.943-2.137 1.282-2.264 0.296-2.817 2.16-0.302 2.293h3.711c1.983 0.021 6.374 0.089 7.631 0.03 2.285-0.043 2.783-1.563 0.018-2.245-0.726-0.178-1.922-0.796-1.945-2.12-0.01-0.703 0-5.019 0-5.019s-1.215-2.882-13.082-2.685c-7.312 0.153-12.459 0.346-12.754 11.556-0.037 14.534 9.828 12.885 13.666 13.154 5.443-0.077 8.295-0.702 9.878-1.246 2.448-0.802 2.551-1.899 2.587-3.881 0.033-1.996-0.445-3.866-2.868-3.961-3.398-0.27-3.658 1.131-3.899 2.393-0.504 3.737-0.767 3.939-5.116 3.97-6.309 0.042-7.008-3.044-6.859-10.005 0.112-5.252 0.22-9.062 6.382-8.985 3.294-7e-3 5.154 0.214 5.154 2.433 0 0 0.171 1.994-0.065 3.036" fill="#006838"/>
   </g>
  </g>
 </g>
</svg>
